<?xml version="1.0" standalone="no"?>
<!DOCTYPE svg>
<svg version="1.0" xmlns="http://www.w3.org/2000/svg"
 width="500px" height="500px" viewBox="500px 500px"
 preserveAspectRatio="xMidYMid meet">

<g transform="translate(0.000000,512.000000) scale(0.100000,-0.100000)"
fill="#ffffff" stroke="none">
<path d="M1280 4480 l0 -530 320 0 320 0 0 530 0 530 -320 0 -320 0 0 -530z"/>
<path d="M539 3707 c-24 -13 -57 -43 -74 -66 l-30 -43 -3 -575 -2 -575 166
-252 c188 -282 221 -326 273 -358 l36 -23 695 0 695 0 38 23 c49 31 95 92 282
375 l155 237 -2 573 -3 574 -27 39 c-15 21 -44 50 -65 64 l-37 25 -1026 3
-1026 2 -45 -23z m1845 -411 c43 -18 66 -51 66 -96 0 -45 -23 -78 -66 -96 -50
-21 -1518 -21 -1568 0 -43 18 -66 51 -66 96 0 44 23 78 64 96 47 20 1521 20
1570 0z m16 -433 c58 -34 68 -116 21 -164 l-29 -29 -792 0 -792 0 -29 29 c-47
47 -37 129 19 164 25 15 98 16 800 17 704 0 776 -1 802 -17z m-97 -433 c38
-30 52 -80 33 -123 -29 -69 -1 -67 -736 -67 -735 0 -707 -2 -736 67 -19 43 -5
93 33 123 25 20 39 20 703 20 664 0 678 0 703 -20z"/>
</g>
</svg>
