<?xml version="1.0" standalone="no"?>
<!DOCTYPE svg PUBLIC "-//W3C//DTD SVG 20010904//EN"
 "http://www.w3.org/TR/2001/REC-SVG-20010904/DTD/svg10.dtd">
<svg version="1.0" xmlns="http://www.w3.org/2000/svg"
 width="360.000000pt" height="360.000000pt" viewBox="0 0 360.000000 360.000000"
 preserveAspectRatio="xMidYMid meet">

<g transform="translate(0.000000,360.000000) scale(0.100000,-0.100000)"
fill="#ffffff" stroke="none">
<path d="M1238 3028 c-24 -20 -28 -43 -12 -73 11 -22 14 -165 16 -848 5 -1651
7 -1744 24 -1751 9 -3 22 -2 31 2 13 8 15 123 14 958 -1 522 -4 1102 -7 1290
-5 252 -4 343 4 348 18 11 14 51 -6 69 -22 20 -43 22 -64 5z"/>
<path d="M1353 2650 c4 -162 7 -388 7 -502 l0 -208 48 -24 c69 -35 196 -73
286 -85 164 -23 305 -7 481 53 136 46 231 60 368 53 128 -6 226 -31 331 -83
38 -19 71 -34 73 -34 2 0 2 228 1 507 l-3 506 -120 34 c-190 54 -341 76 -465
70 -92 -4 -124 -12 -255 -55 -181 -61 -249 -74 -380 -75 -150 -1 -259 33 -341
106 l-37 32 6 -295z m1290 226 l52 -11 3 -99 3 -98 -24 6 c-13 3 -56 9 -95 12
-70 7 -72 8 -72 34 0 15 -3 62 -7 104 l-6 78 47 -7 c26 -4 71 -13 99 -19z
m-383 -50 c0 -35 3 -83 6 -107 l6 -44 -85 -18 c-46 -9 -90 -17 -96 -17 -7 0
-11 33 -11 99 l0 98 78 26 c42 15 83 26 90 27 8 0 12 -19 12 -64z m-440 -155
l0 -104 -91 5 c-50 3 -94 10 -98 16 -8 13 -14 168 -8 179 3 5 48 8 101 8 l96
0 0 -104z m654 -48 c3 -21 6 -63 6 -94 l0 -56 -82 -6 c-46 -3 -84 -5 -85 -3
-1 1 -3 42 -5 91 l-3 90 65 6 c36 3 72 6 81 7 12 1 18 -9 23 -35z m381 -22
l60 -16 0 -88 c0 -51 -4 -87 -10 -87 -5 1 -44 9 -85 19 l-75 18 -5 87 c-3 48
-3 90 -1 92 4 4 20 0 116 -25z m-1370 -20 c37 -12 76 -21 86 -21 17 0 19 -8
19 -96 l0 -96 -27 6 c-16 4 -61 16 -100 28 l-73 21 0 95 c0 76 3 93 14 89 7
-3 44 -15 81 -26z m565 -40 c0 -26 3 -68 6 -93 l6 -45 -58 -16 c-33 -9 -78
-19 -101 -23 l-43 -7 0 97 0 96 28 1 c15 0 54 9 87 19 33 10 63 18 68 19 4 0
7 -21 7 -48z m608 -117 l42 -5 0 -95 c0 -100 -1 -110 -12 -107 -3 1 -43 5 -87
9 l-81 7 0 103 0 104 48 -6 c26 -3 66 -7 90 -10z m-378 -112 l0 -97 -89 -21
-89 -20 -7 98 c-4 55 -6 101 -4 102 8 8 175 43 182 39 4 -2 7 -48 7 -101z
m-452 -99 l3 -103 -69 0 c-38 0 -84 3 -101 6 l-31 7 0 101 0 101 97 -5 97 -5
4 -102z m660 -125 l3 -106 -68 -7 c-37 -4 -76 -9 -85 -11 -16 -5 -18 5 -18
110 l0 115 48 4 c26 2 63 3 82 3 l35 -1 3 -107z m371 56 l51 -15 0 -125 c0
-69 -3 -124 -7 -122 -5 2 -43 17 -85 33 l-78 30 0 114 0 113 34 -6 c19 -4 57
-13 85 -22z m-1440 -4 c10 -5 51 -18 92 -28 l74 -19 5 -102 c3 -69 2 -101 -6
-101 -16 0 -113 34 -156 56 l-38 18 0 93 c0 51 3 93 6 93 3 0 13 -4 23 -10z
m651 -139 l0 -118 -72 -11 c-40 -6 -88 -13 -105 -15 l-33 -4 0 112 0 111 83
20 c138 35 127 43 127 -95z"/>
</g>
</svg>
