<?xml version="1.0" standalone="no"?>
<!DOCTYPE svg PUBLIC "-//W3C//DTD SVG 20010904//EN"
 "http://www.w3.org/TR/2001/REC-SVG-20010904/DTD/svg10.dtd">
<svg version="1.0" xmlns="http://www.w3.org/2000/svg"
 width="500px" height="500px" viewBox="500px 500px"
 preserveAspectRatio="xMidYMid meet">

<g transform="translate(0.000000,512.000000) scale(0.100000,-0.100000)"
fill="#ffffff" stroke="none">
<path d="M3730 4480 l0 -530 320 0 320 0 0 530 0 530 -320 0 -320 0 0 -530z"/>
<path d="M3540 3714 c-46 -20 -77 -50 -103 -99 -22 -40 -22 -45 -27 -820 l-5
-780 -184 -275 c-101 -151 -194 -296 -207 -323 l-24 -47 2 -564 3 -563 27 -39
c15 -21 44 -50 65 -64 l37 -25 716 0 716 0 37 25 c21 14 50 43 65 64 l27 39 0
1677 0 1676 -25 37 c-14 21 -43 50 -64 65 l-39 27 -491 2 c-422 2 -496 0 -526
-13z m764 -418 c43 -18 66 -51 66 -96 0 -45 -23 -78 -66 -96 -51 -21 -463 -20
-509 2 -31 14 -65 64 -65 94 0 29 34 79 63 94 44 22 460 23 511 2z m16 -433
c58 -34 68 -116 21 -164 l-29 -29 -254 0 c-282 0 -287 1 -315 67 -19 47 -3 97
41 124 28 17 52 19 269 19 205 0 243 -2 267 -17z m21 -442 c47 -48 37 -130
-21 -164 -24 -15 -62 -17 -265 -17 -266 0 -285 4 -311 67 -19 43 -5 93 33 123
24 19 40 20 280 20 l255 0 29 -29z m-37 -405 c43 -18 66 -51 66 -96 0 -45 -23
-78 -66 -96 -51 -21 -463 -20 -509 2 -31 14 -65 64 -65 94 0 29 34 79 63 94
44 22 460 23 511 2z m16 -433 c58 -34 68 -116 21 -164 l-29 -29 -356 0 c-240
0 -363 4 -380 11 -76 35 -67 162 14 192 8 3 170 6 358 6 304 1 347 -1 372 -16z
m21 -442 c47 -48 37 -130 -21 -164 -25 -15 -76 -17 -480 -17 -404 0 -455 2
-480 17 -58 34 -68 116 -21 164 l29 29 472 0 472 0 29 -29z m-37 -405 c43 -18
66 -51 66 -96 0 -45 -23 -78 -66 -96 -49 -21 -879 -21 -928 0 -43 18 -66 51
-66 96 0 44 23 78 64 96 46 20 882 20 930 0z"/>
</g>
</svg>
