<svg xmlns="http://www.w3.org/2000/svg" xmlns:xlink="http://www.w3.org/1999/xlink" version="1.1" width="256" height="256" viewBox="0 0 256 256" xml:space="preserve" fill="white">

<defs>
</defs>
<g style="stroke: none; stroke-width: 0; stroke-dasharray: none; stroke-linecap: butt; stroke-linejoin: miter; stroke-miterlimit: 10; fill: none; fill-rule: nonzero; opacity: 1;" transform="translate(1.4065934065934016 1.4065934065934016) scale(2.81 2.81)" >
	<path d="M 59.333 70.537 H 30.667 c -1.104 0 -2 -0.896 -2 -2 V 21.463 c 0 -1.104 0.896 -2 2 -2 h 28.667 c 1.104 0 2 0.896 2 2 v 47.074 C 61.333 69.642 60.438 70.537 59.333 70.537 z M 32.667 66.537 h 24.667 V 23.463 H 32.667 V 66.537 z" style="stroke: none; stroke-width: 1; stroke-dasharray: none; stroke-linecap: butt; stroke-linejoin: miter; stroke-miterlimit: 10; fill: white; fill-rule: nonzero; opacity: 1;" transform=" matrix(1 0 0 1 0 0) " stroke-linecap="round" />
	<path d="M 30.667 70.537 H 2 c -1.104 0 -2 -0.896 -2 -2 V 30.653 c 0 -1.104 0.896 -2 2 -2 h 28.667 c 1.104 0 2 0.896 2 2 s -0.896 2 -2 2 H 4 v 33.884 h 26.667 c 1.104 0 2 0.896 2 2 S 31.771 70.537 30.667 70.537 z" style="stroke: none; stroke-width: 1; stroke-dasharray: none; stroke-linecap: butt; stroke-linejoin: miter; stroke-miterlimit: 10; fill: white; fill-rule: nonzero; opacity: 1;" transform=" matrix(1 0 0 1 0 0) " stroke-linecap="round" />
	<path d="M 88 70.537 H 59.333 c -1.104 0 -2 -0.896 -2 -2 V 39.843 c 0 -1.104 0.896 -2 2 -2 H 88 c 1.104 0 2 0.896 2 2 v 28.694 C 90 69.642 89.104 70.537 88 70.537 z M 61.333 66.537 H 86 V 41.843 H 61.333 V 66.537 z" style="stroke: none; stroke-width: 1; stroke-dasharray: none; stroke-linecap: butt; stroke-linejoin: miter; stroke-miterlimit: 10; fill: white; fill-rule: nonzero; opacity: 1;" transform=" matrix(1 0 0 1 0 0) " stroke-linecap="round" />
	<path d="M 45 46.103 c -1.104 0 -2 -0.896 -2 -2 V 31.961 l -0.471 0.302 c -0.931 0.596 -2.168 0.326 -2.763 -0.604 c -0.596 -0.93 -0.326 -2.167 0.604 -2.763 l 3.55 -2.276 c 0.615 -0.395 1.397 -0.422 2.039 -0.071 C 46.601 26.9 47 27.573 47 28.304 v 15.799 C 47 45.207 46.104 46.103 45 46.103 z" style="stroke: none; stroke-width: 1; stroke-dasharray: none; stroke-linecap: butt; stroke-linejoin: miter; stroke-miterlimit: 10; fill: white; fill-rule: nonzero; opacity: 1;" transform=" matrix(1 0 0 1 0 0) " stroke-linecap="round" />
	<path d="M 45 46.103 h -3.55 c -1.104 0 -2 -0.896 -2 -2 s 0.896 -2 2 -2 H 45 c 1.104 0 2 0.896 2 2 S 46.104 46.103 45 46.103 z" style="stroke: none; stroke-width: 1; stroke-dasharray: none; stroke-linecap: butt; stroke-linejoin: miter; stroke-miterlimit: 10; fill: white; fill-rule: nonzero; opacity: 1;" transform=" matrix(1 0 0 1 0 0) " stroke-linecap="round" />
	<path d="M 48.551 46.103 H 45 c -1.104 0 -2 -0.896 -2 -2 s 0.896 -2 2 -2 h 3.551 c 1.104 0 2 0.896 2 2 S 49.655 46.103 48.551 46.103 z" style="stroke: none; stroke-width: 1; stroke-dasharray: none; stroke-linecap: butt; stroke-linejoin: miter; stroke-miterlimit: 10; fill: white; fill-rule: nonzero; opacity: 1;" transform=" matrix(1 0 0 1 0 0) " stroke-linecap="round" />
	<path d="M 20.061 55.292 h -7.456 c -1.104 0 -2 -0.896 -2 -2 c 0 -2.029 0.767 -3.96 2.16 -5.435 l 4.758 -5.042 c 0.746 -0.79 0.709 -2.04 -0.081 -2.785 c -0.382 -0.361 -0.89 -0.555 -1.409 -0.536 c -0.526 0.015 -1.014 0.234 -1.375 0.617 l -0.6 0.636 c -0.758 0.802 -2.023 0.838 -2.828 0.081 c -0.803 -0.759 -0.839 -2.024 -0.081 -2.828 l 0.6 -0.635 c 1.094 -1.159 2.574 -1.823 4.168 -1.869 c 1.593 -0.037 3.11 0.531 4.27 1.625 c 2.394 2.259 2.503 6.045 0.244 8.439 l -4.759 5.043 c -0.2 0.212 -0.375 0.442 -0.521 0.688 h 4.907 c 1.104 0 2 0.896 2 2 S 21.166 55.292 20.061 55.292 z" style="stroke: none; stroke-width: 1; stroke-dasharray: none; stroke-linecap: butt; stroke-linejoin: miter; stroke-miterlimit: 10; fill: white; fill-rule: nonzero; opacity: 1;" transform=" matrix(1 0 0 1 0 0) " stroke-linecap="round" />
	<path d="M 72.972 56.189 c -1.104 0 -2 -0.896 -2 -2 s 0.896 -2 2 -2 c 1.075 0 1.949 -0.874 1.949 -1.949 s -0.874 -1.95 -1.949 -1.95 c -0.574 0 -1.001 0.263 -1.259 0.483 c -0.84 0.718 -2.103 0.62 -2.82 -0.219 c -0.718 -0.84 -0.62 -2.102 0.219 -2.82 c 1.089 -0.931 2.459 -1.444 3.86 -1.444 c 3.28 0 5.949 2.669 5.949 5.95 C 78.921 53.521 76.252 56.189 72.972 56.189 z" style="stroke: none; stroke-width: 1; stroke-dasharray: none; stroke-linecap: butt; stroke-linejoin: miter; stroke-miterlimit: 10; fill: white; fill-rule: nonzero; opacity: 1;" transform=" matrix(1 0 0 1 0 0) " stroke-linecap="round" />
	<path d="M 72.972 64.089 c -1.402 0 -2.774 -0.514 -3.861 -1.445 c -0.839 -0.719 -0.936 -1.981 -0.217 -2.82 c 0.72 -0.838 1.982 -0.935 2.82 -0.217 c 0.257 0.22 0.684 0.482 1.258 0.482 c 1.075 0 1.949 -0.874 1.949 -1.949 s -0.874 -1.95 -1.949 -1.95 c -1.104 0 -2 -0.896 -2 -2 s 0.896 -2 2 -2 c 3.28 0 5.949 2.669 5.949 5.95 C 78.921 61.42 76.252 64.089 72.972 64.089 z" style="stroke: none; stroke-width: 1; stroke-dasharray: none; stroke-linecap: butt; stroke-linejoin: miter; stroke-miterlimit: 10; fill: white; fill-rule: nonzero; opacity: 1;" transform=" matrix(1 0 0 1 0 0) " stroke-linecap="round" />
</g>
</svg>